<svg width="60" height="44" viewBox="0 0 60 44" fill="none" xmlns="http://www.w3.org/2000/svg">
<path d="M16.8308 26.3892H11.6301C11.0095 26.3892 10.513 26.8856 10.513 27.5062V29.6659V39.1736V41.3333C10.513 41.9539 11.0095 42.4504 11.6301 42.4504H16.8308C17.4514 42.4504 17.9478 41.9539 17.9478 41.3333V39.1736V29.6659V27.5062C17.9603 26.8856 17.4514 26.3892 16.8308 26.3892Z" fill="#18DE6E"/>
<path d="M27.3438 20.1707H22.1431C21.5225 20.1707 21.0261 20.6671 21.0261 21.2877V29.6659V32.9427V41.3208C21.0261 41.9414 21.5225 42.4379 22.1431 42.4379H27.3438C27.9644 42.4379 28.4609 41.9414 28.4609 41.3208V32.9427V29.6659V21.2877C28.4609 20.6671 27.9644 20.1707 27.3438 20.1707Z" fill="#18DE6E"/>
<path d="M38.9739 23.4848V14.2254H42.5734C43.2313 14.2254 43.6409 13.4931 43.2933 12.9346L35.9702 1.18032C35.6351 0.646599 34.8655 0.646599 34.5304 1.18032L27.2073 12.9346C26.8597 13.4931 27.2569 14.2254 27.9272 14.2254H31.5267V41.3334C31.5267 41.954 32.0232 42.4505 32.6438 42.4505H37.8444C38.465 42.4505 38.9615 41.954 38.9615 41.3334C36.8763 38.9379 35.5978 35.8224 35.5978 32.3967C35.6227 28.9957 36.8887 25.868 38.9739 23.4848Z" fill="#18DE6E"/>
<path d="M49.2015 21.623C43.2437 21.623 38.403 26.4513 38.403 32.4216C38.403 38.3794 43.2312 43.2201 49.2015 43.2201C55.1593 43.2201 60 38.3918 60 32.4216C60 26.4513 55.1717 21.623 49.2015 21.623ZM52.3045 36.6665C51.8328 37.2374 51.2246 37.6222 50.5047 37.8208C50.1944 37.9077 50.0579 38.0691 50.0703 38.3918C50.0827 38.7145 50.0703 39.0248 50.0703 39.3475C50.0703 39.633 49.9214 39.7819 49.6483 39.7943C49.3008 39.8067 48.9656 39.8067 48.6181 39.7943C48.3202 39.7943 48.1713 39.6206 48.1713 39.3227C48.1713 39.0868 48.1713 38.851 48.1588 38.6276C48.1588 38.1187 48.134 38.0939 47.6375 38.0194C47.0045 37.9201 46.3839 37.7712 45.8005 37.4981C45.3413 37.2747 45.3041 37.163 45.4282 36.6913C45.5275 36.3314 45.6268 35.9838 45.7385 35.6363C45.8626 35.2267 45.9743 35.177 46.3467 35.3756C46.9921 35.7108 47.6624 35.8969 48.3823 35.9838C48.8415 36.0459 49.2883 35.9962 49.7104 35.8101C50.5047 35.4625 50.6288 34.544 49.9586 33.9855C49.7352 33.7993 49.4745 33.6628 49.2015 33.5386C48.5064 33.2283 47.7741 33.0049 47.1286 32.6077C46.0612 31.9747 45.3909 31.0935 45.4654 29.7902C45.5523 28.3256 46.3839 27.4071 47.7244 26.923C48.283 26.7244 48.283 26.7244 48.283 26.1535C48.283 25.9549 48.283 25.7563 48.283 25.5701C48.2954 25.1357 48.3698 25.0612 48.8043 25.0488C48.9408 25.0488 49.0773 25.0488 49.2139 25.0488C50.1448 25.0488 50.1448 25.0488 50.1448 25.9797C50.1448 26.6375 50.1448 26.6375 50.8026 26.7368C51.2991 26.8113 51.7832 26.9602 52.2424 27.1712C52.5031 27.283 52.59 27.4567 52.5155 27.7298C52.4038 28.127 52.2921 28.5366 52.1679 28.9338C52.0438 29.3061 51.9321 29.3682 51.5722 29.1944C50.8523 28.8469 50.0951 28.6979 49.2883 28.7476C49.0773 28.76 48.8787 28.7848 48.6802 28.8717C47.9851 29.1696 47.8734 29.9391 48.4691 30.4108C48.767 30.6466 49.1022 30.8204 49.4621 30.9693C50.0703 31.2176 50.6909 31.4658 51.2743 31.7885C53.1113 32.7567 53.6077 35.0902 52.3045 36.6665Z" fill="#18DE6E"/>
<path d="M6.31775 33.8984H1.11709C0.496483 33.8984 0 34.3949 0 35.0155V35.2265V37.1752V39.1736V39.9183V41.3333C0 41.9539 0.496483 42.4504 1.11709 42.4504H6.31775C6.93835 42.4504 7.43484 41.9539 7.43484 41.3333V39.9183V39.1736V37.1752V35.4996V35.0155C7.44725 34.3949 6.93835 33.8984 6.31775 33.8984Z" fill="#18DE6E"/>
</svg>
