<svg width="58" height="60" viewBox="0 0 58 60" fill="none" xmlns="http://www.w3.org/2000/svg">
<path d="M49.6275 32.0298H45.142C45.5992 33.3247 45.849 34.7221 45.849 36.1787V53.7158C45.849 54.3231 45.7468 54.906 45.5609 55.4481H52.9764C55.7465 55.4481 58 53.1167 58 50.2513V40.691C58.0001 35.9152 54.2442 32.0298 49.6275 32.0298Z" fill="white"/>
<path d="M12.1511 36.1788C12.1511 34.7221 12.4009 33.3248 12.8581 32.0299H8.37263C3.75596 32.0299 0 35.9153 0 40.6912V50.2515C0 53.117 2.25351 55.4483 5.02358 55.4483H12.4392C12.2533 54.906 12.1511 54.3232 12.1511 53.7159V36.1788Z" fill="white"/>
<path d="M34.1273 27.5175H23.8728C19.2562 27.5175 15.5002 31.4029 15.5002 36.1788V53.7159C15.5002 54.6726 16.2499 55.4482 17.1747 55.4482H40.8254C41.7502 55.4482 42.4999 54.6727 42.4999 53.7159V36.1788C42.4999 31.4029 38.744 27.5175 34.1273 27.5175Z" fill="white"/>
<path d="M29 4.55157C23.4479 4.55157 18.9309 9.22432 18.9309 14.968C18.9309 18.8639 21.0095 22.2665 24.0792 24.0529C25.5352 24.9002 27.2138 25.3844 29 25.3844C30.7863 25.3844 32.4649 24.9002 33.9209 24.0529C36.9907 22.2665 39.0692 18.8638 39.0692 14.968C39.0692 9.22443 34.5522 4.55157 29 4.55157Z" fill="white"/>
<path d="M11.3189 14.2605C7.16654 14.2605 3.78848 17.755 3.78848 22.0505C3.78848 26.346 7.16654 29.8406 11.3189 29.8406C12.3722 29.8406 13.3752 29.6149 14.2863 29.2092C15.8616 28.5076 17.1605 27.2656 17.9642 25.7099C18.5283 24.6181 18.8493 23.3725 18.8493 22.0505C18.8493 17.7551 15.4712 14.2605 11.3189 14.2605Z" fill="white"/>
<path d="M46.6813 14.2605C42.5289 14.2605 39.1509 17.755 39.1509 22.0505C39.1509 23.3726 39.4718 24.6182 40.0359 25.7099C40.8397 27.2657 42.1385 28.5077 43.7138 29.2092C44.625 29.6149 45.628 29.8406 46.6813 29.8406C50.8336 29.8406 54.2116 26.346 54.2116 22.0505C54.2116 17.755 50.8336 14.2605 46.6813 14.2605Z" fill="white"/>
</svg>
